<?xml version="1.0"?><svg width="128" height="128" xmlns="http://www.w3.org/2000/svg" xmlns:xlink="http://www.w3.org/1999/xlink">
 <title>male black white</title>
 <defs>
  <linearGradient id="linearGradient14503">
   <stop stop-color="white" id="stop14505" offset="0"/>
   <stop stop-color="white" stop-opacity="0" id="stop14507" offset="1"/>
  </linearGradient>
  <linearGradient y2="0.649801" x2="0.777756" y1="-0.288062" x1="-2.176204" id="linearGradient17207" xlink:href="#linearGradient14503"/>
 </defs>
 <metadata id="metadata7">image/svg+xml</metadata>
 <g>
  <title>Layer 1</title>
  <path fill="#000000" fill-rule="evenodd" stroke-width="1px" d="m89.503807,38.899887c1.827286,-12.544184 -5.104378,-29.560903 -24.364082,-29.93047c-24.992142,-0.479571 -29.639362,17.526509 -28.372158,30.968591c1.543381,16.371494 49.525379,21.00407 52.73624,-1.03812z" id="path12688"/>
  <path fill="#000000" fill-rule="evenodd" stroke="black" stroke-width="1px" d="m3.600378,118.618805c2.792715,-7.711395 4.029242,-22.026237 13.642748,-26.805809l44.593491,-9.540924l46.57431,8.852943c8.195435,2.942162 12.069351,18.887817 15.987419,27.922745c-2.552254,1.832169 -4.751968,4.54567 -7.787086,5.170692l-105.680443,0c-3.431954,-1.273468 -5.170211,-3.563148 -7.330439,-5.599648z" id="path12692"/>
  <path fill="#ffffff" fill-rule="evenodd" stroke="black" stroke-width="1px" d="m48.702923,72.396339c0.237713,5.769287 -1.129765,9.094299 -3.832626,13.984413c10.52367,19.342896 37.800678,9.371864 37.08881,-0.54528l-3.018143,-16.493477l-30.238041,3.054344z" id="path12694"/>
  <path fill="#ffffff" fill-rule="evenodd" stroke="black" stroke-width="1px" d="m87.176888,41.412937c-0.581978,9.118946 -0.837204,20.2379 -2.879662,29.356861c0,0 -9.28685,8.441483 -14.470352,10.742508c-5.183487,2.301033 -6.634285,1.988968 -11.518658,-0.071983c-4.884373,-2.060974 -16.198135,-10.094604 -16.198135,-10.094604c-4.862587,-19.715614 -6.526112,-40.380108 15.118256,-51.386301l6.408443,7.610956c2.371109,2.816051 12.781876,7.194069 16.714653,3.439264c3.103973,-2.963511 4.999191,7.903601 6.825455,10.403299z" id="path12696"/>
  <path fill="url(#linearGradient17207)" fill-rule="evenodd" stroke-width="1px" d="m40.9842,42.976208c-0.805943,9.140415 0.529621,17.872105 2.553787,27.198154c5.578693,4.507164 9.807404,10.453377 21.452293,8.074089c3.98719,-0.908653 2.508774,-2.814621 4.798805,-3.965729c-13.76564,4.089806 -16.011196,1.197739 -23.106636,-7.130043l-4.684143,-27.222702l-1.014107,3.04623z" id="path13605"/>
 </g>
</svg>